<?xml version='1.0' encoding='UTF-8'?>
<svg x="0px" y="0px" viewBox="0 0 32 32" version="1.1" xmlns="http://www.w3.org/2000/svg" xmlns:xlink="http://www.w3.org/1999/xlink" enable-background="new 0 0 32 32" xml:space="preserve" id="Layer_1">
  <g id="Order">
    <path d="M23,24c1.7,0,3,1.3,3,3s-1.3,3-3,3s-3-1.3-3-3S21.3,24,23,24z M8,20V10V8H2v2h4v12h22v-2H8z M11,24   c1.7,0,3,1.3,3,3s-1.3,3-3,3s-3-1.3-3-3S9.3,24,11,24z" fill="#727272" class="Black" />
    <path d="M11,18h14c0.6,0,1-0.5,1-1V5c0-0.5-0.4-1-1-1H11c-0.6,0-1,0.5-1,1v12C10,17.5,10.4,18,11,18z" fill="#FFB115" class="Yellow" />
  </g>
</svg>